<?xml version="1.0" encoding="UTF-8"?><svg xmlns="http://www.w3.org/2000/svg" xmlns:xlink="http://www.w3.org/1999/xlink" xmlns:serif="http://www.serif.com/" width="100%" height="100%" viewBox="0 0 355 355" version="1.2" xml:space="preserve" baseProfile="tiny-ps" fill-rule="evenodd" stroke-linejoin="round" stroke-miterlimit="2"><title>Matthews-Kennington</title><g transform="matrix(1,0,0,1,10.8096,18.1035)"><g transform="matrix(200,0,0,200,57.6916,199.349)"><path d="M0.434,-0.295C0.452,-0.343 0.472,-0.39 0.491,-0.437C0.5,-0.461 0.515,-0.504 0.492,-0.526C0.469,-0.548 0.425,-0.533 0.404,-0.515C0.386,-0.499 0.371,-0.482 0.355,-0.466C0.324,-0.431 0.295,-0.395 0.269,-0.356C0.24,-0.317 0.215,-0.276 0.191,-0.234L0.191,-0.239C0.193,-0.254 0.196,-0.274 0.19,-0.289C0.176,-0.323 0.131,-0.3 0.114,-0.282C0.102,-0.268 0.091,-0.251 0.08,-0.234C0.09,-0.275 0.1,-0.314 0.109,-0.354C0.115,-0.376 0.12,-0.398 0.126,-0.42C0.128,-0.432 0.143,-0.461 0.12,-0.461C0.097,-0.46 0.095,-0.426 0.091,-0.41C0.084,-0.378 0.076,-0.347 0.068,-0.314C0.053,-0.251 0.038,-0.186 0.022,-0.124C0.014,-0.097 0.008,-0.071 0.002,-0.044C0.001,-0.037 -0.004,-0.028 0.002,-0.02C0.026,0.008 0.036,-0.059 0.038,-0.068C0.047,-0.101 0.054,-0.133 0.064,-0.166C0.073,-0.196 0.094,-0.227 0.112,-0.253C0.12,-0.264 0.13,-0.275 0.142,-0.283C0.145,-0.286 0.15,-0.288 0.152,-0.288C0.156,-0.288 0.157,-0.288 0.158,-0.284C0.162,-0.28 0.162,-0.272 0.162,-0.266C0.162,-0.259 0.161,-0.251 0.16,-0.244C0.157,-0.227 0.152,-0.21 0.146,-0.193C0.134,-0.156 0.119,-0.121 0.108,-0.084C0.106,-0.074 0.114,-0.068 0.122,-0.067C0.133,-0.065 0.136,-0.07 0.14,-0.077C0.154,-0.1 0.164,-0.126 0.174,-0.151C0.184,-0.176 0.193,-0.202 0.205,-0.227C0.222,-0.259 0.244,-0.29 0.265,-0.322C0.292,-0.361 0.319,-0.398 0.349,-0.434C0.365,-0.451 0.38,-0.469 0.397,-0.485C0.406,-0.493 0.414,-0.502 0.424,-0.508C0.432,-0.514 0.442,-0.52 0.452,-0.518C0.47,-0.516 0.473,-0.497 0.472,-0.482C0.469,-0.462 0.461,-0.444 0.452,-0.425C0.433,-0.377 0.414,-0.329 0.397,-0.281C0.379,-0.233 0.364,-0.184 0.352,-0.134C0.34,-0.084 0.33,-0.031 0.331,0.02C0.332,0.062 0.341,0.113 0.376,0.139C0.39,0.151 0.409,0.157 0.427,0.152C0.444,0.148 0.46,0.136 0.467,0.119C0.469,0.112 0.469,0.102 0.467,0.095C0.464,0.084 0.448,0.089 0.451,0.098C0.46,0.125 0.427,0.139 0.406,0.13C0.386,0.119 0.377,0.095 0.371,0.076C0.364,0.052 0.362,0.026 0.362,0.001C0.364,-0.05 0.374,-0.101 0.388,-0.15C0.401,-0.199 0.416,-0.247 0.434,-0.295Z" fill-rule="nonzero"></path></g><g transform="matrix(100,0,0,100,151.492,199.349)"><path d="M0.349,-0.465C0.336,-0.472 0.321,-0.476 0.307,-0.476C0.269,-0.476 0.229,-0.451 0.209,-0.417C0.204,-0.46 0.182,-0.512 0.125,-0.512C0.09,-0.512 0.06,-0.486 0.06,-0.44C0.06,-0.332 0.166,-0.264 0.199,-0.147C0.181,-0.124 0.16,-0.096 0.16,-0.071C0.16,-0.055 0.17,-0.046 0.185,-0.046C0.215,-0.046 0.224,-0.071 0.224,-0.095C0.224,-0.11 0.22,-0.126 0.217,-0.139C0.239,-0.17 0.265,-0.197 0.289,-0.225C0.32,-0.261 0.384,-0.337 0.384,-0.401C0.384,-0.426 0.374,-0.447 0.349,-0.465ZM0.205,-0.101C0.204,-0.081 0.191,-0.069 0.185,-0.069C0.182,-0.069 0.181,-0.07 0.181,-0.074C0.181,-0.084 0.194,-0.102 0.204,-0.121C0.205,-0.114 0.205,-0.107 0.205,-0.101ZM0.275,-0.239C0.265,-0.226 0.216,-0.161 0.21,-0.161C0.175,-0.261 0.08,-0.35 0.08,-0.44C0.08,-0.474 0.102,-0.491 0.127,-0.491C0.169,-0.491 0.19,-0.449 0.19,-0.404L0.19,-0.387C0.19,-0.384 0.192,-0.382 0.196,-0.381C0.195,-0.377 0.195,-0.375 0.195,-0.371C0.195,-0.362 0.196,-0.35 0.205,-0.35C0.21,-0.35 0.215,-0.354 0.215,-0.359C0.215,-0.364 0.214,-0.367 0.214,-0.372C0.214,-0.415 0.264,-0.457 0.307,-0.457C0.344,-0.457 0.365,-0.426 0.365,-0.397C0.365,-0.341 0.304,-0.27 0.275,-0.239Z" fill-rule="nonzero"></path></g><g transform="matrix(200,0,0,200,196.692,199.349)"><path d="M0.377,-0.54C0.37,-0.54 0.362,-0.538 0.361,-0.534C0.343,-0.479 0.313,-0.427 0.275,-0.383C0.236,-0.338 0.188,-0.298 0.132,-0.278C0.119,-0.274 0.106,-0.27 0.091,-0.268L0.091,-0.27C0.091,-0.271 0.092,-0.272 0.092,-0.274C0.106,-0.325 0.12,-0.376 0.134,-0.426C0.146,-0.466 0.158,-0.505 0.172,-0.545C0.176,-0.559 0.145,-0.56 0.142,-0.55C0.112,-0.461 0.084,-0.371 0.061,-0.28C0.061,-0.281 0.06,-0.281 0.059,-0.281C0.052,-0.284 0.044,-0.286 0.036,-0.282C0.029,-0.278 0.026,-0.271 0.031,-0.263C0.036,-0.256 0.046,-0.252 0.055,-0.251C0.044,-0.21 0.036,-0.168 0.028,-0.127C0.022,-0.097 0.017,-0.067 0.011,-0.037C0.01,-0.026 0.002,-0.008 0.005,0.004C0.007,0.01 0.013,0.012 0.019,0.011C0.024,0.01 0.036,0.006 0.036,0.001C0.049,-0.079 0.065,-0.16 0.084,-0.239C0.095,-0.227 0.103,-0.215 0.11,-0.203C0.131,-0.172 0.144,-0.139 0.152,-0.104C0.161,-0.068 0.167,-0.03 0.181,0.005C0.193,0.034 0.214,0.059 0.241,0.076C0.27,0.092 0.305,0.097 0.335,0.08C0.344,0.074 0.336,0.06 0.326,0.065C0.31,0.072 0.29,0.076 0.274,0.071C0.254,0.066 0.244,0.053 0.233,0.038C0.212,0.008 0.202,-0.028 0.193,-0.062C0.19,-0.079 0.186,-0.096 0.181,-0.113C0.173,-0.146 0.161,-0.179 0.142,-0.209C0.136,-0.218 0.125,-0.228 0.115,-0.236C0.113,-0.238 0.094,-0.252 0.095,-0.252C0.11,-0.256 0.127,-0.262 0.144,-0.264C0.192,-0.274 0.236,-0.305 0.271,-0.338C0.32,-0.385 0.359,-0.443 0.383,-0.505C0.386,-0.514 0.389,-0.521 0.392,-0.529C0.395,-0.536 0.385,-0.54 0.377,-0.54Z" fill-rule="nonzero"></path></g></g><g transform="matrix(1,0,0,1,51.5237,-210.554)"><g transform="matrix(150,0,0,150,37.7417,307.827)"><path d="M0.114,-0.191C0.166,-0.195 0.214,-0.229 0.257,-0.26C0.26,-0.261 0.26,-0.264 0.26,-0.266L0.26,-0.267C0.304,-0.291 0.346,-0.307 0.391,-0.32C0.371,-0.295 0.351,-0.265 0.351,-0.24C0.351,-0.225 0.364,-0.206 0.377,-0.206C0.407,-0.206 0.434,-0.291 0.445,-0.334C0.489,-0.342 0.534,-0.346 0.579,-0.346L0.597,-0.346C0.567,-0.327 0.549,-0.282 0.537,-0.244L0.537,-0.241C0.537,-0.236 0.541,-0.232 0.545,-0.232L0.547,-0.232C0.589,-0.251 0.617,-0.287 0.631,-0.337C0.635,-0.336 0.644,-0.334 0.645,-0.334C0.649,-0.334 0.651,-0.339 0.652,-0.341C0.69,-0.339 0.726,-0.33 0.762,-0.32C0.736,-0.307 0.715,-0.287 0.715,-0.261C0.716,-0.247 0.72,-0.244 0.727,-0.244C0.751,-0.244 0.797,-0.295 0.806,-0.302C0.809,-0.302 0.809,-0.304 0.809,-0.305C0.837,-0.295 0.865,-0.282 0.892,-0.269C0.874,-0.261 0.816,-0.227 0.816,-0.21C0.816,-0.195 0.84,-0.187 0.849,-0.187C0.879,-0.187 0.919,-0.222 0.939,-0.244C0.969,-0.226 0.995,-0.207 1.021,-0.186L1.014,-0.186C0.982,-0.186 0.942,-0.142 0.942,-0.122C0.942,-0.111 0.954,-0.097 0.979,-0.097C1.011,-0.097 1.042,-0.122 1.061,-0.152C1.085,-0.131 1.109,-0.107 1.13,-0.082C1.131,-0.08 1.132,-0.08 1.135,-0.08C1.139,-0.08 1.141,-0.085 1.141,-0.09C1.141,-0.107 1.076,-0.162 1.057,-0.179C1.059,-0.185 1.06,-0.191 1.06,-0.197C1.06,-0.201 1.06,-0.205 1.059,-0.209C1.072,-0.227 1.079,-0.249 1.079,-0.272C1.079,-0.292 1.076,-0.31 1.061,-0.31C1.04,-0.31 1.031,-0.289 1.031,-0.266C1.031,-0.247 1.037,-0.239 1.044,-0.211C1.044,-0.207 1.046,-0.202 1.046,-0.197C1.046,-0.195 1.045,-0.192 1.044,-0.19C1.009,-0.22 0.971,-0.245 0.932,-0.267C0.934,-0.269 0.935,-0.271 0.935,-0.274C0.935,-0.315 0.924,-0.365 0.901,-0.397C0.899,-0.399 0.897,-0.4 0.895,-0.4C0.884,-0.4 0.879,-0.377 0.879,-0.369C0.879,-0.339 0.901,-0.302 0.915,-0.279C0.915,-0.279 0.914,-0.279 0.914,-0.277C0.88,-0.295 0.846,-0.311 0.811,-0.324L0.811,-0.326C0.811,-0.332 0.807,-0.334 0.805,-0.337C0.806,-0.339 0.807,-0.341 0.807,-0.346C0.804,-0.37 0.794,-0.449 0.764,-0.449C0.745,-0.449 0.73,-0.421 0.73,-0.409C0.73,-0.379 0.762,-0.35 0.786,-0.331C0.737,-0.346 0.689,-0.356 0.639,-0.361L0.639,-0.362C0.639,-0.412 0.617,-0.459 0.586,-0.49C0.584,-0.491 0.582,-0.491 0.581,-0.491C0.564,-0.491 0.557,-0.457 0.557,-0.451C0.557,-0.42 0.586,-0.387 0.612,-0.362C0.597,-0.364 0.585,-0.364 0.571,-0.364C0.53,-0.364 0.489,-0.361 0.449,-0.352L0.449,-0.355C0.449,-0.36 0.437,-0.366 0.435,-0.366C0.422,-0.385 0.387,-0.445 0.364,-0.445C0.356,-0.445 0.344,-0.435 0.344,-0.419C0.344,-0.376 0.386,-0.356 0.417,-0.351C0.415,-0.35 0.412,-0.346 0.411,-0.344C0.357,-0.33 0.304,-0.311 0.254,-0.284C0.249,-0.296 0.177,-0.302 0.157,-0.302C0.137,-0.302 0.031,-0.292 0.031,-0.232C0.034,-0.197 0.081,-0.191 0.106,-0.191L0.114,-0.191ZM0.624,-0.374C0.606,-0.392 0.577,-0.412 0.577,-0.437C0.577,-0.456 0.582,-0.467 0.585,-0.467C0.599,-0.467 0.622,-0.404 0.624,-0.374ZM0.791,-0.347C0.784,-0.356 0.771,-0.361 0.762,-0.371C0.756,-0.384 0.751,-0.396 0.746,-0.409C0.756,-0.414 0.764,-0.416 0.769,-0.416C0.786,-0.416 0.79,-0.37 0.791,-0.347ZM0.916,-0.309C0.905,-0.327 0.894,-0.352 0.894,-0.37C0.894,-0.372 0.894,-0.374 0.895,-0.376C0.907,-0.356 0.912,-0.334 0.916,-0.309ZM1.054,-0.232C1.051,-0.239 1.047,-0.245 1.047,-0.252C1.047,-0.261 1.054,-0.269 1.065,-0.276C1.066,-0.275 1.066,-0.274 1.066,-0.27C1.066,-0.261 1.06,-0.244 1.054,-0.232ZM1.049,-0.164C1.05,-0.164 1.05,-0.162 1.05,-0.162C1.039,-0.144 1.012,-0.116 0.992,-0.116C0.981,-0.116 0.964,-0.134 0.964,-0.137C0.964,-0.147 1.009,-0.17 1.022,-0.17C1.03,-0.17 1.039,-0.162 1.046,-0.162C1.046,-0.162 1.047,-0.162 1.049,-0.164ZM0.912,-0.259C0.916,-0.256 0.92,-0.255 0.925,-0.252C0.906,-0.234 0.871,-0.206 0.847,-0.206C0.842,-0.206 0.839,-0.207 0.835,-0.209C0.859,-0.232 0.884,-0.249 0.912,-0.259ZM0.786,-0.314C0.789,-0.312 0.79,-0.312 0.794,-0.311C0.779,-0.299 0.752,-0.271 0.741,-0.271C0.737,-0.271 0.736,-0.272 0.736,-0.275C0.736,-0.296 0.794,-0.315 0.786,-0.314ZM0.616,-0.336C0.605,-0.301 0.585,-0.275 0.557,-0.256C0.57,-0.292 0.586,-0.329 0.616,-0.336ZM0.374,-0.389C0.375,-0.397 0.376,-0.409 0.379,-0.419C0.385,-0.419 0.402,-0.39 0.415,-0.37C0.401,-0.37 0.385,-0.379 0.374,-0.389ZM0.419,-0.327C0.421,-0.329 0.425,-0.329 0.429,-0.33C0.42,-0.299 0.397,-0.237 0.387,-0.237C0.387,-0.237 0.371,-0.244 0.371,-0.256C0.371,-0.28 0.415,-0.325 0.419,-0.327ZM0.06,-0.254C0.081,-0.279 0.115,-0.286 0.149,-0.286C0.181,-0.286 0.217,-0.279 0.244,-0.271C0.201,-0.24 0.155,-0.209 0.104,-0.209C0.09,-0.209 0.051,-0.214 0.051,-0.235C0.051,-0.24 0.055,-0.246 0.06,-0.254Z" fill-rule="nonzero"></path></g></g><g transform="matrix(-1,-1.22465e-16,1.22465e-16,-1,302.807,564.885)"><g transform="matrix(150,0,0,150,37.7417,307.827)"><path d="M0.114,-0.191C0.166,-0.195 0.214,-0.229 0.257,-0.26C0.26,-0.261 0.26,-0.264 0.26,-0.266L0.26,-0.267C0.304,-0.291 0.346,-0.307 0.391,-0.32C0.371,-0.295 0.351,-0.265 0.351,-0.24C0.351,-0.225 0.364,-0.206 0.377,-0.206C0.407,-0.206 0.434,-0.291 0.445,-0.334C0.489,-0.342 0.534,-0.346 0.579,-0.346L0.597,-0.346C0.567,-0.327 0.549,-0.282 0.537,-0.244L0.537,-0.241C0.537,-0.236 0.541,-0.232 0.545,-0.232L0.547,-0.232C0.589,-0.251 0.617,-0.287 0.631,-0.337C0.635,-0.336 0.644,-0.334 0.645,-0.334C0.649,-0.334 0.651,-0.339 0.652,-0.341C0.69,-0.339 0.726,-0.33 0.762,-0.32C0.736,-0.307 0.715,-0.287 0.715,-0.261C0.716,-0.247 0.72,-0.244 0.727,-0.244C0.751,-0.244 0.797,-0.295 0.806,-0.302C0.809,-0.302 0.809,-0.304 0.809,-0.305C0.837,-0.295 0.865,-0.282 0.892,-0.269C0.874,-0.261 0.816,-0.227 0.816,-0.21C0.816,-0.195 0.84,-0.187 0.849,-0.187C0.879,-0.187 0.919,-0.222 0.939,-0.244C0.969,-0.226 0.995,-0.207 1.021,-0.186L1.014,-0.186C0.982,-0.186 0.942,-0.142 0.942,-0.122C0.942,-0.111 0.954,-0.097 0.979,-0.097C1.011,-0.097 1.042,-0.122 1.061,-0.152C1.085,-0.131 1.109,-0.107 1.13,-0.082C1.131,-0.08 1.132,-0.08 1.135,-0.08C1.139,-0.08 1.141,-0.085 1.141,-0.09C1.141,-0.107 1.076,-0.162 1.057,-0.179C1.059,-0.185 1.06,-0.191 1.06,-0.197C1.06,-0.201 1.06,-0.205 1.059,-0.209C1.072,-0.227 1.079,-0.249 1.079,-0.272C1.079,-0.292 1.076,-0.31 1.061,-0.31C1.04,-0.31 1.031,-0.289 1.031,-0.266C1.031,-0.247 1.037,-0.239 1.044,-0.211C1.044,-0.207 1.046,-0.202 1.046,-0.197C1.046,-0.195 1.045,-0.192 1.044,-0.19C1.009,-0.22 0.971,-0.245 0.932,-0.267C0.934,-0.269 0.935,-0.271 0.935,-0.274C0.935,-0.315 0.924,-0.365 0.901,-0.397C0.899,-0.399 0.897,-0.4 0.895,-0.4C0.884,-0.4 0.879,-0.377 0.879,-0.369C0.879,-0.339 0.901,-0.302 0.915,-0.279C0.915,-0.279 0.914,-0.279 0.914,-0.277C0.88,-0.295 0.846,-0.311 0.811,-0.324L0.811,-0.326C0.811,-0.332 0.807,-0.334 0.805,-0.337C0.806,-0.339 0.807,-0.341 0.807,-0.346C0.804,-0.37 0.794,-0.449 0.764,-0.449C0.745,-0.449 0.73,-0.421 0.73,-0.409C0.73,-0.379 0.762,-0.35 0.786,-0.331C0.737,-0.346 0.689,-0.356 0.639,-0.361L0.639,-0.362C0.639,-0.412 0.617,-0.459 0.586,-0.49C0.584,-0.491 0.582,-0.491 0.581,-0.491C0.564,-0.491 0.557,-0.457 0.557,-0.451C0.557,-0.42 0.586,-0.387 0.612,-0.362C0.597,-0.364 0.585,-0.364 0.571,-0.364C0.53,-0.364 0.489,-0.361 0.449,-0.352L0.449,-0.355C0.449,-0.36 0.437,-0.366 0.435,-0.366C0.422,-0.385 0.387,-0.445 0.364,-0.445C0.356,-0.445 0.344,-0.435 0.344,-0.419C0.344,-0.376 0.386,-0.356 0.417,-0.351C0.415,-0.35 0.412,-0.346 0.411,-0.344C0.357,-0.33 0.304,-0.311 0.254,-0.284C0.249,-0.296 0.177,-0.302 0.157,-0.302C0.137,-0.302 0.031,-0.292 0.031,-0.232C0.034,-0.197 0.081,-0.191 0.106,-0.191L0.114,-0.191ZM0.624,-0.374C0.606,-0.392 0.577,-0.412 0.577,-0.437C0.577,-0.456 0.582,-0.467 0.585,-0.467C0.599,-0.467 0.622,-0.404 0.624,-0.374ZM0.791,-0.347C0.784,-0.356 0.771,-0.361 0.762,-0.371C0.756,-0.384 0.751,-0.396 0.746,-0.409C0.756,-0.414 0.764,-0.416 0.769,-0.416C0.786,-0.416 0.79,-0.37 0.791,-0.347ZM0.916,-0.309C0.905,-0.327 0.894,-0.352 0.894,-0.37C0.894,-0.372 0.894,-0.374 0.895,-0.376C0.907,-0.356 0.912,-0.334 0.916,-0.309ZM1.054,-0.232C1.051,-0.239 1.047,-0.245 1.047,-0.252C1.047,-0.261 1.054,-0.269 1.065,-0.276C1.066,-0.275 1.066,-0.274 1.066,-0.27C1.066,-0.261 1.06,-0.244 1.054,-0.232ZM1.049,-0.164C1.05,-0.164 1.05,-0.162 1.05,-0.162C1.039,-0.144 1.012,-0.116 0.992,-0.116C0.981,-0.116 0.964,-0.134 0.964,-0.137C0.964,-0.147 1.009,-0.17 1.022,-0.17C1.03,-0.17 1.039,-0.162 1.046,-0.162C1.046,-0.162 1.047,-0.162 1.049,-0.164ZM0.912,-0.259C0.916,-0.256 0.92,-0.255 0.925,-0.252C0.906,-0.234 0.871,-0.206 0.847,-0.206C0.842,-0.206 0.839,-0.207 0.835,-0.209C0.859,-0.232 0.884,-0.249 0.912,-0.259ZM0.786,-0.314C0.789,-0.312 0.79,-0.312 0.794,-0.311C0.779,-0.299 0.752,-0.271 0.741,-0.271C0.737,-0.271 0.736,-0.272 0.736,-0.275C0.736,-0.296 0.794,-0.315 0.786,-0.314ZM0.616,-0.336C0.605,-0.301 0.585,-0.275 0.557,-0.256C0.57,-0.292 0.586,-0.329 0.616,-0.336ZM0.374,-0.389C0.375,-0.397 0.376,-0.409 0.379,-0.419C0.385,-0.419 0.402,-0.39 0.415,-0.37C0.401,-0.37 0.385,-0.379 0.374,-0.389ZM0.419,-0.327C0.421,-0.329 0.425,-0.329 0.429,-0.33C0.42,-0.299 0.397,-0.237 0.387,-0.237C0.387,-0.237 0.371,-0.244 0.371,-0.256C0.371,-0.28 0.415,-0.325 0.419,-0.327ZM0.06,-0.254C0.081,-0.279 0.115,-0.286 0.149,-0.286C0.181,-0.286 0.217,-0.279 0.244,-0.271C0.201,-0.24 0.155,-0.209 0.104,-0.209C0.09,-0.209 0.051,-0.214 0.051,-0.235C0.051,-0.24 0.055,-0.246 0.06,-0.254Z" fill-rule="nonzero"></path></g></g></svg>